<?xml version="1.0" encoding="utf-8"?>
<!-- Generator: Adobe Illustrator 16.0.4, SVG Export Plug-In . SVG Version: 6.00 Build 0)  -->
<!DOCTYPE svg PUBLIC "-//W3C//DTD SVG 1.1//EN" "http://www.w3.org/Graphics/SVG/1.1/DTD/svg11.dtd">
<svg version="1.1" id="Calque_1" xmlns="http://www.w3.org/2000/svg" xmlns:xlink="http://www.w3.org/1999/xlink" x="0px" y="0px"
	 width="457px" height="157px" viewBox="0 0 457 157" enable-background="new 0 0 457 157" xml:space="preserve">
<g>
	<g>
		<g>
			<path fill="#FFFFFF" d="M148.934,124.895v-4.676h1.533v4.676H148.934z M148.934,134.247v-2.338h6.13v2.338H148.934z
				 M150.466,120.219v-2.338h6.13v2.338H150.466z M150.466,127.232v-2.338h4.598v2.338H150.466z M155.064,131.909v-4.677h1.533
				v4.677H155.064z"/>
			<path fill="#FFFFFF" d="M159.11,134.247v-16.366h1.533v7.014h4.598v-7.014h1.533v16.366h-1.533v-7.015h-4.598v7.015H159.11z"/>
			<path fill="#FFFFFF" d="M169.287,134.247v-14.028h1.533v4.676h4.598v-4.676h1.533v14.028h-1.533v-7.015h-4.598v7.015H169.287z
				 M170.819,120.219v-2.338h4.598v2.338H170.819z"/>
			<path fill="#FFFFFF" d="M179.463,134.247v-16.366h1.533v14.028h6.13v2.338H179.463z"/>
			<path fill="#FFFFFF" d="M189.639,134.247v-16.366h1.533v14.028h6.13v2.338H189.639z"/>
			<path fill="#FFFFFF" d="M208.459,131.909v-14.028h1.533v14.028H208.459z M209.992,134.247v-2.338h1.533v2.338H209.992z
				 M211.525,131.909v-7.015h1.532v7.015H211.525z M213.057,134.247v-2.338h1.533v2.338H213.057z M214.59,131.909v-14.028h1.533
				v14.028H214.59z"/>
			<path fill="#FFFFFF" d="M218.636,134.247v-16.366h7.663v2.338h-6.13v4.676h4.598v2.338h-4.598v4.677h6.13v2.338H218.636z"/>
			<path fill="#FFFFFF" d="M237.457,134.247v-16.366h6.13v2.338h-4.598v4.676h4.598v2.338h-4.598v7.015H237.457z M243.587,124.895
				v-4.676h1.532v4.676H243.587z"/>
			<path fill="#FFFFFF" d="M247.633,134.247v-16.366h1.532v14.028h6.131v2.338H247.633z"/>
			<path fill="#FFFFFF" d="M257.809,134.247v-14.028h1.533v4.676h4.598v-4.676h1.532v14.028h-1.532v-7.015h-4.598v7.015H257.809z
				 M259.342,120.219v-2.338h4.598v2.338H259.342z"/>
			<path fill="#FFFFFF" d="M267.985,124.895v-7.014h1.533v7.014H267.985z M269.519,127.232v-2.338h1.532v2.338H269.519z
				 M271.051,134.247v-7.015h1.532v7.015H271.051z M272.583,127.232v-2.338h1.533v2.338H272.583z M274.116,124.895v-7.014h1.532
				v7.014H274.116z"/>
			<path fill="#FFFFFF" d="M286.806,134.247v-14.028h1.532v4.676h4.599v-4.676h1.532v14.028h-1.532v-7.015h-4.599v7.015H286.806z
				 M288.338,120.219v-2.338h4.599v2.338H288.338z"/>
			<path fill="#FFFFFF" d="M305.626,131.909v-11.69h1.532v11.69H305.626z M307.158,120.219v-2.338h4.599v2.338H307.158z
				 M307.158,134.247v-2.338h4.599v-4.677h-3.065v-2.338h4.598v9.353H307.158z M311.757,122.557v-2.338h1.532v2.338H311.757z"/>
			<path fill="#FFFFFF" d="M315.803,134.247v-14.028h1.532v4.676h4.599v-4.676h1.532v14.028h-1.532v-7.015h-4.599v7.015H315.803z
				 M317.335,120.219v-2.338h4.599v2.338H317.335z"/>
			<path fill="#FFFFFF" d="M325.979,134.247v-16.366h1.532v2.338h1.533v2.338h-1.533v11.69H325.979z M329.044,127.232v-4.676h1.532
				v4.676H329.044z M332.109,134.247v-11.69h-1.533v-2.338h1.533v-2.338h1.532v16.366H332.109z"/>
			<path fill="#FFFFFF" d="M336.155,134.247v-16.366h7.663v2.338h-6.131v4.676h4.599v2.338h-4.599v4.677h6.131v2.338H336.155z"/>
			<path fill="#FFFFFF" d="M354.976,122.557v-2.338h1.532v2.338H354.976z M356.508,120.219v-2.338h3.065v2.338H356.508z
				 M356.508,129.57v-2.338h1.533v2.338H356.508z M356.508,134.247v-2.338h1.533v2.338H356.508z M358.041,127.232v-2.338h1.532
				v2.338H358.041z M359.573,124.895v-4.676h1.533v4.676H359.573z"/>
		</g>
	</g>
	<rect x="367.546" y="114.767" fill="#AECF87" width="11.762" height="20.812"/>
</g>
<g>
	<path fill="#FFFFFF" d="M192.225,89.485c-1.952-0.522-3.71-1.284-5.276-2.29c-1.565-1.005-2.861-2.241-3.884-3.711
		c-1.025-1.469-1.614-3.149-1.769-5.044v-4.986h7.885v4.174c0.58,1.855,1.671,3.267,3.275,4.232c1.604,0.967,3.45,1.449,5.537,1.449
		c0.928,0,1.903-0.145,2.928-0.435c1.024-0.29,1.961-0.715,2.812-1.276c0.85-0.559,1.565-1.246,2.146-2.058
		c0.58-0.812,0.908-1.739,0.985-2.783V56.873h7.885v21.51c-0.155,1.971-0.774,3.701-1.855,5.189c-1.083,1.488-2.416,2.725-4,3.71
		c-1.585,0.985-3.333,1.73-5.247,2.231c-1.913,0.504-3.759,0.754-5.537,0.754C196.139,90.268,194.177,90.008,192.225,89.485z"/>
	<path fill="#FFFFFF" d="M218.459,73.512c0-2.28,0.415-4.444,1.247-6.493c0.831-2.048,2-3.846,3.508-5.392
		c1.507-1.545,3.324-2.773,5.45-3.682c2.125-0.908,4.464-1.363,7.016-1.363c2.551,0,4.879,0.455,6.986,1.363
		c2.105,0.909,3.922,2.136,5.449,3.682c1.526,1.546,2.705,3.344,3.537,5.392c0.83,2.049,1.246,4.213,1.246,6.493
		c0,2.281-0.435,4.435-1.305,6.464c-0.869,2.029-2.068,3.818-3.594,5.363c-1.527,1.547-3.344,2.764-5.451,3.652
		c-2.106,0.891-4.396,1.334-6.869,1.334c-2.397,0-4.639-0.443-6.726-1.334c-2.087-0.889-3.904-2.105-5.45-3.652
		c-1.546-1.545-2.773-3.334-3.681-5.363C218.914,77.947,218.459,75.793,218.459,73.512z M226.17,73.512
		c0,1.314,0.27,2.561,0.812,3.74c0.541,1.18,1.255,2.203,2.145,3.072c0.888,0.87,1.904,1.566,3.044,2.088
		c1.139,0.521,2.309,0.783,3.508,0.783c1.197,0,2.367-0.242,3.507-0.725c1.14-0.483,2.146-1.15,3.015-2.001
		c0.87-0.85,1.566-1.874,2.088-3.073c0.521-1.197,0.782-2.493,0.782-3.884c0-1.429-0.261-2.754-0.782-3.971
		c-0.521-1.218-1.218-2.261-2.088-3.131c-0.869-0.87-1.875-1.545-3.015-2.029c-1.14-0.483-2.31-0.725-3.507-0.725
		c-1.199,0-2.369,0.271-3.508,0.812c-1.141,0.542-2.156,1.256-3.044,2.145c-0.89,0.89-1.604,1.934-2.145,3.131
		C226.44,70.942,226.17,72.199,226.17,73.512z"/>
	<path fill="#FFFFFF" d="M273.25,90.036h-16.698v-6.958h15.597c0.928,0,1.912-0.019,2.957-0.057c1.043-0.039,2-0.154,2.869-0.349
		c0.869-0.192,1.595-0.483,2.174-0.87c0.58-0.385,0.87-0.928,0.87-1.623c0-1.236-0.657-2.01-1.972-2.318
		c-1.314-0.31-3.266-0.465-5.855-0.465c-1.971,0-3.963-0.096-5.972-0.289c-2.011-0.193-3.827-0.618-5.45-1.276
		c-1.623-0.657-2.938-1.624-3.942-2.899s-1.507-3.015-1.507-5.218c0-2.589,0.482-4.618,1.449-6.087
		c0.965-1.469,2.203-2.551,3.711-3.247c1.507-0.695,3.188-1.121,5.043-1.275c1.855-0.154,3.691-0.232,5.508-0.232h16.699v6.958
		h-15.597c-0.928,0-1.913,0.02-2.957,0.058c-1.044,0.039-2.001,0.155-2.87,0.348c-0.869,0.194-1.594,0.484-2.174,0.87
		c-0.58,0.387-0.87,0.928-0.87,1.624c0,1.275,0.647,2.058,1.942,2.348c1.295,0.29,3.236,0.435,5.826,0.435
		c2.01,0,4.02,0.097,6.03,0.29c2.009,0.194,3.827,0.619,5.45,1.275c1.623,0.658,2.938,1.624,3.943,2.899
		c1.004,1.275,1.508,3.015,1.508,5.218c0,2.629-0.484,4.667-1.451,6.116c-0.965,1.449-2.203,2.522-3.71,3.219
		c-1.508,0.695-3.199,1.121-5.073,1.275C276.854,89.959,275.027,90.036,273.25,90.036z"/>
	<path fill="#FFFFFF" d="M293.309,90.036V56.873h7.885v33.164H293.309z M318.877,90.036V79.947h-14.668v-7.884h14.668v-15.19h7.885
		v33.164H318.877z"/>
	<path fill="#FFFFFF" d="M347.518,90.268c-1.971,0-3.934-0.26-5.885-0.782s-3.711-1.284-5.275-2.29
		c-1.566-1.005-2.861-2.241-3.885-3.711c-1.025-1.469-1.615-3.149-1.768-5.044V56.873h7.885v20.756
		c0.58,1.855,1.67,3.267,3.275,4.232c1.604,0.967,3.449,1.449,5.537,1.449c0.928,0,1.902-0.145,2.928-0.435
		c1.023-0.29,1.961-0.715,2.812-1.276c0.85-0.559,1.564-1.246,2.145-2.058s0.908-1.739,0.986-2.783V56.873h7.885v21.51
		c-0.156,1.971-0.773,3.701-1.855,5.189c-1.084,1.488-2.416,2.725-4,3.71c-1.586,0.985-3.334,1.73-5.248,2.231
		C351.141,90.018,349.295,90.268,347.518,90.268z"/>
	<path fill="#FFFFFF" d="M384.914,56.641c1.777,0,3.623,0.252,5.537,0.754c1.912,0.502,3.66,1.247,5.246,2.232
		c1.584,0.986,2.918,2.223,4,3.711c1.082,1.488,1.701,3.218,1.855,5.189v21.51h-7.885V79.947H379v-7.884h14.668v-1.914
		c-0.078-1.043-0.406-1.971-0.986-2.783c-0.578-0.812-1.295-1.498-2.145-2.058c-0.85-0.56-1.789-0.986-2.812-1.276
		c-1.023-0.29-2-0.435-2.928-0.435c-2.086,0-3.934,0.484-5.537,1.449c-1.604,0.967-2.695,2.377-3.275,4.232v20.756H368.1V68.468
		c0.154-1.894,0.744-3.575,1.768-5.044c1.025-1.469,2.32-2.705,3.885-3.711c1.566-1.004,3.324-1.768,5.277-2.29
		C380.98,56.902,382.941,56.641,384.914,56.641z"/>
	<path fill="#FFFFFF" d="M405.494,90.036V82.15h7.885v7.886H405.494z"/>
	<path fill="#FFFFFF" d="M417.322,90.036V82.15h7.885v7.886H417.322z"/>
	<path fill="#FFFFFF" d="M429.15,90.036V82.15h7.885v7.886H429.15z"/>
</g>
<g>
	<polygon fill="#AECF87" points="72.831,66.938 72.831,63.131 72.831,59.325 72.831,55.518 72.831,51.711 72.831,47.905 
		72.831,44.098 72.831,40.292 72.831,36.486 59.235,36.486 59.235,33.054 46.66,33.054 46.66,29.622 20.488,29.622 20.488,33.428 
		24.294,33.428 24.294,37.233 28.102,37.233 28.102,41.041 31.907,41.041 31.907,44.847 35.713,44.847 35.713,48.654 35.713,52.461 
		32.452,52.461 32.452,56.267 28.645,56.267 28.645,60.073 24.84,60.073 24.84,63.881 21.032,63.881 21.032,67.688 46.66,67.688 
		46.66,71.12 59.235,71.12 59.235,74.552 72.831,74.552 72.831,70.745 	"/>
	<polygon fill="#F2F2F2" points="78.909,32.68 72.831,32.68 72.831,36.486 76.636,36.486 	"/>
	<rect x="72.831" y="74.552" fill="#F2F2F2" width="8.257" height="3.806"/>
</g>
<g>
	<g>
		<g>
			<path fill-rule="evenodd" clip-rule="evenodd" fill="#FFFFFF" d="M96.044,17.551c0.741,0.122,1.488,0.218,2.225,0.368
				c5.995,1.221,10.004,4.803,12.306,10.394c1.277,3.102,1.879,6.361,2.058,9.687c0.152,2.846,0.188,5.7,0.198,8.551
				c0.02,5.689-0.014,11.379-0.025,17.068c-0.002,1.299-0.575,2.278-1.736,2.839c-1.154,0.557-2.293,0.433-3.316-0.356
				c-0.805-0.62-1.173-1.479-1.171-2.488c0.007-5.326,0.025-10.652,0.03-15.979c0.004-3.768,0.103-7.538-0.399-11.288
				c-0.33-2.461-0.894-4.853-2.07-7.067c-1.721-3.239-4.464-4.949-8.05-5.385c-2.198-0.266-4.357-0.062-6.422,0.754
				c-3.622,1.43-5.657,4.173-6.386,7.94c-0.449,2.322-0.433,4.674-0.387,7.026c0.012,0.588,0.042,1.178,0.007,1.764
				c-0.09,1.515-1.336,2.776-2.79,2.858c-1.731,0.098-3.062-0.884-3.375-2.486c-0.023-0.112-0.069-0.219-0.104-0.328
				c0-1.973,0-3.945,0-5.917c0.029-0.11,0.073-0.218,0.085-0.329c0.147-1.249,0.228-2.509,0.443-3.747
				c1.204-6.965,6.305-12.142,13.234-13.467c0.839-0.16,1.688-0.276,2.532-0.412C93.968,17.551,95.006,17.551,96.044,17.551z"/>
			<path fill-rule="evenodd" clip-rule="evenodd" fill="#FFFFFF" d="M91.166,50.846c0-4.964-0.003-9.928,0.003-14.893
				c0.001-1.728,0.941-2.944,2.507-3.287c1.811-0.396,3.613,0.964,3.724,2.814c0.012,0.207,0.011,0.415,0.011,0.622
				c0,9.739-0.009,19.477,0.007,29.214c0.004,1.993,0.447,3.907,1.304,5.715c1.238,2.614,3.28,4.283,6.051,5.036
				c2.828,0.768,5.68,0.758,8.507-0.002c3.635-0.977,5.857-3.435,7.042-6.916c0.589-1.733,0.824-3.52,0.764-5.355
				c-0.051-1.572-0.025-3.148-0.039-4.721c-0.035-3.908-0.082-7.815-0.104-11.722c-0.008-1.388,0.829-2.516,2.117-2.951
				c1.256-0.423,2.697-0.021,3.454,1.102c0.34,0.504,0.574,1.16,0.624,1.766c0.103,1.237,0.049,2.488,0.06,3.732
				c0.035,3.977,0.011,7.955,0.122,11.929c0.092,3.295-0.292,6.487-1.585,9.531c-2.543,5.982-7.126,9.293-13.513,10.169
				c-3.347,0.458-6.669,0.297-9.891-0.773c-5.397-1.792-8.704-5.596-10.316-10.965c-0.58-1.931-0.848-3.914-0.848-5.93
				C91.165,60.256,91.166,55.552,91.166,50.846z"/>
			<path fill-rule="evenodd" clip-rule="evenodd" fill="#FFFFFF" d="M181.508,63.748c-0.073-4.017,0.194-4.831,0.184-7.254
				c-0.035-8.387-0.046-16.775-0.077-25.163c-0.005-1.321-0.141-2.623-0.745-3.832c-0.605-1.211-1.55-1.991-2.9-2.175
				c-0.696-0.095-1.42-0.131-2.115-0.054c-1.453,0.159-2.424,0.973-2.93,2.362c-0.484,1.331-0.497,2.707-0.493,4.092
				c0.012,4.359,0.027,8.718,0.01,13.076c-0.007,1.762-1.369,3.091-3.094,3.107c-1.697,0.018-3.125-1.333-3.132-3.076
				c-0.021-5.051-0.024-10.101,0.023-15.151c0.016-1.739,0.429-3.424,1.17-5.012c1.637-3.507,4.466-5.307,8.25-5.653
				c2.314-0.212,4.562,0.113,6.618,1.27c2.903,1.635,4.479,4.227,5.198,7.401c0.423,1.869,0.394,3.77,0.378,5.674
				c-0.028,3.476-0.007,6.953-0.007,10.429c0,1.021,0,2.04,0,3.06c0.033,0,0.068,0,0.102,0c-0.057,5.654-0.072,11.308-0.195,16.96
				L181.508,63.748z"/>
			<path fill-rule="evenodd" clip-rule="evenodd" fill="#AECF87" d="M136.056,50.583c-0.001-2.25-0.005-4.498,0.001-6.746
				c0.006-2.681,0.024-5.36,0.033-8.042c0.006-1.802,1.31-3.173,3.047-3.194c1.74-0.021,3.107,1.309,3.178,3.092
				c0.006,0.156,0.001,0.312,0.001,0.468c0,9.392-0.015,18.784,0.007,28.176c0.009,3.53,1.199,6.641,3.615,9.233
				c1.225,1.316,2.754,2.177,4.494,2.658c2.486,0.689,4.981,0.732,7.482,0.122c3.842-0.938,6.18-3.471,7.446-7.109
				c0.514-1.477,0.806-2.996,0.854-4.566c0.054-1.771,1.436-3.037,3.233-3.012c1.623,0.023,3.043,1.375,2.982,3.04
				c-0.213,5.878-2.183,10.982-6.872,14.779c-2.296,1.859-5,2.841-7.897,3.291c-3.737,0.583-7.391,0.239-10.884-1.225
				c-4.548-1.906-7.48-5.385-9.297-9.879c-1.03-2.549-1.434-5.217-1.428-7.958C136.062,59.334,136.056,54.958,136.056,50.583z"/>
			<path fill-rule="evenodd" clip-rule="evenodd" fill="#FFFFFF" d="M132.201,89.118c-1.646,1.231-3.179,2.51-4.838,3.593
				c-4.392,2.87-9.254,4.525-14.43,5.279c-0.693,0.102-1.421,0.199-2.102,0.097c-1.547-0.235-2.554-1.608-2.487-3.212
				c0.063-1.499,1.224-2.721,2.741-2.912c5.013-0.634,9.712-2.164,13.84-5.137c1.706-1.23,3.26-2.672,4.864-4.039
				c1.39-1.186,2.973-1.227,4.374-0.073c0.187,0.154,0.371,0.31,0.563,0.458c3.659,2.837,7.538,5.296,11.787,7.174
				c4.729,2.092,9.567,2.356,14.544,1.164c4.963-1.188,9.114-3.701,12.47-7.546c1.118-1.281,2.847-1.522,4.155-0.626
				c1.577,1.081,1.855,3.187,0.587,4.675c-1.69,1.983-3.609,3.72-5.769,5.182c-4.785,3.24-10.092,4.882-15.839,5.233
				c-5.073,0.309-9.785-0.943-14.313-3.116c-3.438-1.651-6.653-3.664-9.736-5.899C132.459,89.301,132.304,89.191,132.201,89.118z"/>
			<path fill-rule="evenodd" clip-rule="evenodd" fill="#FFFFFF" d="M157.487,49.363c0,4.688,0.004,9.375-0.001,14.062
				c-0.002,1.62-1.216,2.98-2.754,3.117c-1.691,0.15-3.088-0.866-3.419-2.5c-0.047-0.235-0.05-0.481-0.05-0.722
				c-0.002-8.355,0.002-16.708-0.006-25.063c-0.001-2.096-0.111-4.186-0.83-6.184c-1.007-2.801-2.568-5.207-5.309-6.566
				c-4.01-1.988-8.079-2.08-12.085,0.049c-1.875,0.996-3.206,2.545-4.125,4.452c-0.808,1.678-2.606,2.369-4.202,1.613
				c-1.622-0.767-2.265-2.614-1.426-4.308c2.527-5.108,6.638-8.183,12.214-9.223c4.351-0.811,8.565-0.209,12.481,1.861
				c5.014,2.651,7.801,7.011,8.967,12.438c0.377,1.758,0.487,3.597,0.523,5.403C157.541,41.648,157.487,45.507,157.487,49.363z"/>
			<path fill-rule="evenodd" clip-rule="evenodd" fill="#FFFFFF" d="M76.792,64.206c0-1.435-0.013-2.869,0.004-4.304
				c0.015-1.283,0.575-2.273,1.74-2.841c1.118-0.545,2.224-0.447,3.232,0.286c0.835,0.607,1.236,1.454,1.253,2.495
				c0.042,2.609,0.051,5.22,0.161,7.827c0.262,6.212,2.516,11.662,6.49,16.408c0.851,1.016,1.824,1.937,2.795,2.842
				c1.312,1.225,1.492,3.148,0.354,4.469c-1.127,1.307-3.106,1.441-4.457,0.246c-5.959-5.275-9.703-11.818-10.981-19.683
				c-0.414-2.547-0.477-5.153-0.701-7.731C76.719,64.213,76.755,64.21,76.792,64.206z"/>
		</g>
	</g>
</g>
</svg>
