<?xml version="1.0" encoding="utf-8"?>
<!-- Generator: Adobe Illustrator 16.0.4, SVG Export Plug-In . SVG Version: 6.00 Build 0)  -->
<!DOCTYPE svg PUBLIC "-//W3C//DTD SVG 1.1//EN" "http://www.w3.org/Graphics/SVG/1.1/DTD/svg11.dtd">
<svg version="1.1" id="Calque_1" xmlns="http://www.w3.org/2000/svg" xmlns:xlink="http://www.w3.org/1999/xlink" x="0px" y="0px"
	 width="100px" height="51.25px" viewBox="0 24.5 100 51.25" enable-background="new 0 24.5 100 51.25" xml:space="preserve">
<g>
	<polygon fill="#AECF87" points="35.623,54.635 35.623,52.864 35.623,51.096 35.623,49.324 35.623,47.554 35.623,45.785 
		35.623,44.014 35.623,42.244 35.623,40.475 29.301,40.475 29.301,38.878 23.454,38.878 23.454,37.283 11.284,37.283 11.284,39.053 
		13.054,39.053 13.054,40.822 14.824,40.822 14.824,42.593 16.594,42.593 16.594,44.362 18.364,44.362 18.364,46.132 18.364,47.903 
		16.847,47.903 16.847,49.672 15.077,49.672 15.077,51.441 13.308,51.441 13.308,53.214 11.537,53.214 11.537,54.982 23.454,54.982 
		23.454,56.579 29.301,56.579 29.301,58.175 35.623,58.175 35.623,56.404 	"/>
	<polygon fill="#F2F2F2" points="38.449,38.705 35.623,38.705 35.623,40.475 37.393,40.475 	"/>
	<rect x="35.623" y="58.175" fill="#F2F2F2" width="3.839" height="1.771"/>
</g>
<g>
	<g>
		<g>
			<path fill="#FFFFFF" d="M46.417,31.67c0.345,0.057,0.692,0.102,1.034,0.171c2.788,0.567,4.652,2.233,5.722,4.833
				c0.595,1.442,0.874,2.958,0.957,4.504c0.071,1.323,0.088,2.65,0.093,3.976c0.01,2.646-0.007,5.291-0.013,7.937
				c-0.001,0.604-0.267,1.06-0.808,1.319c-0.536,0.26-1.066,0.201-1.541-0.165c-0.375-0.288-0.547-0.688-0.545-1.157
				c0.002-2.477,0.012-4.953,0.014-7.43c0.002-1.752,0.048-3.505-0.186-5.249c-0.153-1.145-0.416-2.256-0.963-3.286
				c-0.8-1.506-2.076-2.301-3.743-2.504c-1.022-0.124-2.026-0.029-2.986,0.351c-1.684,0.665-2.63,1.941-2.969,3.692
				c-0.208,1.08-0.201,2.173-0.18,3.267c0.006,0.273,0.02,0.548,0.003,0.82c-0.042,0.705-0.622,1.291-1.297,1.329
				c-0.805,0.045-1.424-0.412-1.569-1.156c-0.01-0.052-0.032-0.102-0.048-0.152c0-0.917,0-1.834,0-2.751
				c0.014-0.051,0.034-0.101,0.04-0.153c0.068-0.581,0.106-1.167,0.206-1.742c0.56-3.239,2.932-5.646,6.154-6.262
				c0.391-0.074,0.785-0.128,1.177-0.192C45.452,31.67,45.935,31.67,46.417,31.67z"/>
			<path fill="#FFFFFF" d="M44.149,47.152c0-2.308-0.001-4.616,0.001-6.925c0-0.803,0.438-1.369,1.166-1.528
				c0.842-0.185,1.68,0.448,1.731,1.309c0.005,0.096,0.005,0.193,0.005,0.289c0,4.529-0.004,9.057,0.003,13.584
				c0.002,0.928,0.208,1.817,0.606,2.657c0.576,1.217,1.525,1.991,2.813,2.342c1.315,0.356,2.641,0.354,3.956-0.001
				c1.689-0.454,2.723-1.597,3.274-3.216c0.272-0.806,0.383-1.638,0.354-2.489c-0.023-0.73-0.012-1.464-0.018-2.195
				c-0.018-1.817-0.039-3.635-0.049-5.452c-0.004-0.646,0.386-1.17,0.984-1.372c0.584-0.197,1.254-0.01,1.605,0.512
				c0.156,0.234,0.268,0.54,0.289,0.821c0.049,0.575,0.023,1.157,0.027,1.736c0.018,1.849,0.006,3.699,0.058,5.547
				c0.043,1.531-0.136,3.016-0.735,4.432c-1.185,2.781-3.314,4.32-6.285,4.729c-1.557,0.213-3.101,0.139-4.599-0.359
				c-2.509-0.833-4.047-2.602-4.797-5.1c-0.27-0.896-0.394-1.818-0.394-2.757C44.148,51.527,44.149,49.34,44.149,47.152z"/>
			<path fill="#FFFFFF" d="M86.157,53.15c-0.033-1.867,0.091-2.246,0.086-3.374c-0.017-3.9-0.021-7.8-0.035-11.7
				c-0.003-0.614-0.065-1.22-0.347-1.782c-0.281-0.563-0.721-0.926-1.35-1.012c-0.322-0.044-0.66-0.061-0.982-0.025
				c-0.676,0.074-1.127,0.452-1.362,1.098c-0.226,0.619-0.231,1.258-0.229,1.903c0.006,2.027,0.014,4.054,0.004,6.08
				c-0.002,0.819-0.637,1.438-1.438,1.445c-0.788,0.008-1.452-0.619-1.456-1.43c-0.01-2.348-0.012-4.697,0.011-7.045
				c0.008-0.809,0.199-1.592,0.545-2.331c0.762-1.631,2.076-2.468,3.836-2.629c1.076-0.099,2.121,0.053,3.078,0.591
				c1.351,0.76,2.082,1.965,2.416,3.441c0.196,0.869,0.184,1.753,0.176,2.638c-0.012,1.616-0.002,3.233-0.002,4.85
				c0,0.475,0,0.948,0,1.423c0.015,0,0.031,0,0.047,0c-0.025,2.629-0.033,5.258-0.092,7.886L86.157,53.15z"/>
			<path fill="#AECF87" d="M65.021,47.029c0-1.046-0.002-2.091,0.002-3.137c0.002-1.247,0.011-2.493,0.015-3.739
				c0.003-0.838,0.608-1.476,1.417-1.485c0.811-0.01,1.445,0.608,1.479,1.438c0.002,0.072,0,0.145,0,0.218
				c0,4.367-0.007,8.734,0.004,13.102c0.004,1.643,0.559,3.088,1.682,4.293c0.568,0.612,1.281,1.014,2.09,1.236
				c1.156,0.32,2.316,0.341,3.479,0.057c1.787-0.437,2.873-1.613,3.463-3.306c0.238-0.687,0.375-1.394,0.396-2.123
				c0.025-0.824,0.668-1.412,1.503-1.401c0.755,0.012,1.415,0.641,1.388,1.414c-0.1,2.733-1.016,5.106-3.195,6.872
				c-1.067,0.865-2.324,1.321-3.672,1.53c-1.737,0.271-3.438,0.111-5.062-0.568c-2.115-0.888-3.479-2.505-4.322-4.595
				c-0.479-1.187-0.666-2.426-0.664-3.7C65.025,51.1,65.021,49.064,65.021,47.029z"/>
			<path fill="#FFFFFF" d="M63.23,64.948c-0.767,0.571-1.479,1.167-2.25,1.671c-2.043,1.334-4.304,2.104-6.711,2.455
				c-0.321,0.047-0.66,0.093-0.978,0.045c-0.72-0.109-1.188-0.748-1.155-1.493c0.028-0.698,0.568-1.267,1.273-1.354
				c2.331-0.295,4.517-1.006,6.438-2.39c0.791-0.571,1.516-1.241,2.26-1.878c0.646-0.551,1.384-0.57,2.033-0.033
				c0.088,0.071,0.174,0.145,0.264,0.213c1.701,1.319,3.505,2.463,5.479,3.336c2.199,0.973,4.449,1.097,6.763,0.541
				c2.31-0.553,4.238-1.722,5.799-3.509c0.521-0.596,1.324-0.708,1.934-0.291c0.732,0.503,0.862,1.481,0.271,2.175
				c-0.785,0.922-1.678,1.729-2.683,2.408c-2.225,1.508-4.692,2.27-7.364,2.434c-2.358,0.145-4.551-0.438-6.655-1.448
				c-1.599-0.769-3.095-1.704-4.527-2.743C63.35,65.033,63.277,64.982,63.23,64.948z"/>
			<path fill="#FFFFFF" d="M74.988,46.462c0,2.18,0.002,4.36-0.002,6.539c0,0.753-0.564,1.386-1.279,1.449
				c-0.786,0.069-1.438-0.402-1.59-1.162c-0.021-0.108-0.023-0.224-0.023-0.336c-0.001-3.885,0.002-7.769-0.003-11.654
				c0-0.975-0.051-1.946-0.386-2.875c-0.469-1.303-1.193-2.421-2.469-3.054c-1.865-0.924-3.758-0.967-5.619,0.023
				c-0.872,0.463-1.491,1.184-1.919,2.07c-0.375,0.78-1.212,1.102-1.954,0.75c-0.753-0.356-1.053-1.215-0.662-2.003
				c1.175-2.375,3.087-3.805,5.68-4.289c2.022-0.377,3.982-0.097,5.803,0.866c2.332,1.232,3.629,3.26,4.17,5.783
				c0.176,0.818,0.228,1.673,0.244,2.513C75.014,42.875,74.988,44.669,74.988,46.462z"/>
			<path fill="#FFFFFF" d="M37.465,53.364c0-0.669-0.006-1.335,0.002-2.003c0.007-0.596,0.268-1.056,0.81-1.32
				c0.52-0.253,1.034-0.208,1.503,0.133c0.388,0.282,0.575,0.676,0.583,1.16c0.02,1.213,0.023,2.427,0.075,3.641
				c0.122,2.887,1.17,5.422,3.018,7.629c0.396,0.473,0.848,0.899,1.3,1.32c0.61,0.569,0.694,1.465,0.165,2.078
				c-0.524,0.607-1.444,0.671-2.072,0.114c-2.771-2.452-4.512-5.494-5.106-9.152c-0.192-1.185-0.222-2.396-0.326-3.595
				C37.431,53.368,37.448,53.366,37.465,53.364z"/>
		</g>
	</g>
</g>
</svg>
