<?xml version="1.0" encoding="utf-8"?>
<!-- Generator: Adobe Illustrator 16.0.4, SVG Export Plug-In . SVG Version: 6.00 Build 0)  -->
<!DOCTYPE svg PUBLIC "-//W3C//DTD SVG 1.1//EN" "http://www.w3.org/Graphics/SVG/1.1/DTD/svg11.dtd">
<svg version="1.1" id="Calque_1" xmlns="http://www.w3.org/2000/svg" xmlns:xlink="http://www.w3.org/1999/xlink" x="0px" y="0px"
	 width="45px" height="20px" viewBox="0 0 45 20" enable-background="new 0 0 45 20" xml:space="preserve">
<g>
	<path fill="#E0013F" d="M8.637,8.76H6.609L5.982,6.831c-0.104-0.318-0.632-0.318-0.735,0L4.621,8.76H2.592
		c-0.167,0-0.316,0.108-0.368,0.267c-0.052,0.16,0.005,0.334,0.141,0.433l1.64,1.191L3.379,12.58
		c-0.052,0.159,0.005,0.334,0.141,0.432c0.067,0.05,0.147,0.074,0.227,0.074s0.16-0.024,0.228-0.074l1.641-1.191l1.64,1.191
		c0.136,0.1,0.32,0.1,0.455,0c0.136-0.098,0.192-0.272,0.141-0.432l-0.626-1.929l1.641-1.191C9,9.361,9.057,9.187,9.005,9.027
		C8.953,8.868,8.805,8.76,8.637,8.76z"/>
	<path fill="#E0013F" d="M16.673,8.76h-2.028l-0.626-1.929c-0.104-0.318-0.632-0.318-0.735,0L12.657,8.76h-2.028
		c-0.167,0-0.316,0.108-0.368,0.267c-0.052,0.16,0.005,0.334,0.141,0.433l1.64,1.191l-0.626,1.929
		c-0.052,0.159,0.005,0.334,0.141,0.432c0.067,0.05,0.147,0.074,0.227,0.074s0.16-0.024,0.228-0.074l1.641-1.191l1.64,1.191
		c0.136,0.1,0.32,0.1,0.455,0c0.136-0.098,0.192-0.272,0.141-0.432l-0.626-1.929l1.64-1.191c0.136-0.099,0.192-0.273,0.141-0.433
		C16.989,8.868,16.841,8.76,16.673,8.76z"/>
	<path fill="#E0013F" d="M24.71,8.76h-2.028l-0.627-1.929c-0.104-0.318-0.632-0.318-0.735,0L20.693,8.76h-2.028
		c-0.167,0-0.316,0.108-0.368,0.267c-0.052,0.16,0.005,0.334,0.141,0.433l1.641,1.191l-0.627,1.929
		c-0.052,0.159,0.005,0.334,0.14,0.432c0.068,0.05,0.148,0.074,0.228,0.074s0.16-0.024,0.228-0.074l1.64-1.191l1.64,1.191
		c0.137,0.1,0.318,0.1,0.455,0c0.135-0.098,0.192-0.272,0.141-0.432l-0.627-1.929l1.642-1.191c0.136-0.099,0.192-0.273,0.141-0.433
		C25.026,8.868,24.878,8.76,24.71,8.76z"/>
	<path fill="#999999" d="M32.747,8.76h-2.028l-0.626-1.929c-0.104-0.318-0.633-0.318-0.736,0L28.73,8.76h-2.029
		c-0.168,0-0.316,0.108-0.368,0.267c-0.052,0.16,0.006,0.334,0.141,0.433l1.642,1.191l-0.627,1.929
		c-0.052,0.159,0.005,0.334,0.141,0.432c0.068,0.05,0.147,0.074,0.228,0.074s0.159-0.024,0.228-0.074l1.641-1.191l1.64,1.191
		c0.137,0.1,0.318,0.1,0.455,0c0.136-0.098,0.192-0.272,0.141-0.432l-0.627-1.929l1.642-1.191c0.135-0.099,0.192-0.273,0.141-0.433
		C33.063,8.868,32.915,8.76,32.747,8.76z"/>
	<path fill="#999999" d="M41.151,9.027c-0.052-0.159-0.2-0.267-0.368-0.267h-2.028l-0.626-1.929c-0.052-0.159-0.2-0.267-0.368-0.267
		s-0.316,0.108-0.368,0.267L36.766,8.76h-2.028c-0.168,0-0.316,0.108-0.368,0.267c-0.052,0.16,0.006,0.334,0.141,0.433l1.642,1.191
		l-0.627,1.929c-0.052,0.159,0.005,0.334,0.141,0.432c0.068,0.05,0.147,0.074,0.228,0.074s0.159-0.024,0.228-0.074l1.641-1.191
		l1.64,1.191c0.137,0.1,0.318,0.1,0.455,0c0.136-0.098,0.192-0.272,0.141-0.432l-0.627-1.929l1.642-1.191
		C41.146,9.361,41.203,9.187,41.151,9.027z"/>
</g>
</svg>
