<?xml version="1.0" encoding="utf-8"?>
<!-- Generator: Adobe Illustrator 16.0.4, SVG Export Plug-In . SVG Version: 6.00 Build 0)  -->
<!DOCTYPE svg PUBLIC "-//W3C//DTD SVG 1.1//EN" "http://www.w3.org/Graphics/SVG/1.1/DTD/svg11.dtd">
<svg version="1.1" id="Calque_1" xmlns="http://www.w3.org/2000/svg" xmlns:xlink="http://www.w3.org/1999/xlink" x="0px" y="0px"
	 width="65.25px" height="60px" viewBox="0 0 65.25 60" enable-background="new 0 0 65.25 60" xml:space="preserve">
<g>
	<polygon fill="#FFFFFF" points="2.319,49.759 2.319,48.318 2.319,46.878 2.319,45.438 2.319,43.997 2.319,42.557 2.319,41.115 
		2.319,39.676 2.319,38.235 7.463,38.235 7.463,36.937 12.222,36.937 12.222,35.638 22.125,35.638 22.125,37.078 20.685,37.078 
		20.685,38.519 19.245,38.519 19.245,39.959 17.804,39.959 17.804,41.399 16.364,41.399 16.364,42.84 16.364,44.28 17.598,44.28 
		17.598,45.721 19.039,45.721 19.039,47.161 20.479,47.161 20.479,48.602 21.92,48.602 21.92,50.043 12.222,50.043 12.222,51.341 
		7.463,51.341 7.463,52.64 2.319,52.64 2.319,51.199 	"/>
	<rect x="0.019" y="36.795" fill="#FFFFFF" width="2.3" height="1.44"/>
	<rect x="0.019" y="52.64" fill="#FFFFFF" width="2.3" height="1.44"/>
</g>
</svg>
