<?xml version="1.0" encoding="utf-8"?>
<!-- Generator: Adobe Illustrator 16.0.4, SVG Export Plug-In . SVG Version: 6.00 Build 0)  -->
<!DOCTYPE svg PUBLIC "-//W3C//DTD SVG 1.1//EN" "http://www.w3.org/Graphics/SVG/1.1/DTD/svg11.dtd">
<svg version="1.1" id="Calque_1" xmlns="http://www.w3.org/2000/svg" xmlns:xlink="http://www.w3.org/1999/xlink" x="0px" y="0px"
	 width="65.25px" height="60px" viewBox="0 0 65.25 60" enable-background="new 0 0 65.25 60" xml:space="preserve">
<g>
	<polygon fill="#FFFFFF" points="6.097,42.66 6.097,38.854 6.097,35.047 6.097,31.24 6.097,27.433 6.097,23.627 6.097,19.819 
		6.097,16.014 6.097,12.208 19.691,12.208 19.691,8.775 32.267,8.775 32.267,5.343 58.438,5.343 58.438,9.149 54.632,9.149 
		54.632,12.955 50.825,12.955 50.825,16.763 47.02,16.763 47.02,20.569 43.214,20.569 43.214,24.375 43.214,28.183 46.475,28.183 
		46.475,31.988 50.282,31.988 50.282,35.795 54.087,35.795 54.087,39.604 57.896,39.604 57.896,43.41 32.267,43.41 32.267,46.842 
		19.691,46.842 19.691,50.273 6.097,50.273 6.097,46.467 	"/>
	<rect x="0.019" y="8.401" fill="#FFFFFF" width="6.078" height="3.806"/>
	<rect x="0.019" y="50.273" fill="#FFFFFF" width="6.078" height="3.807"/>
</g>
</svg>
