<?xml version="1.0" encoding="utf-8"?>
<!-- Generator: Adobe Illustrator 16.0.4, SVG Export Plug-In . SVG Version: 6.00 Build 0)  -->
<!DOCTYPE svg PUBLIC "-//W3C//DTD SVG 1.1//EN" "http://www.w3.org/Graphics/SVG/1.1/DTD/svg11.dtd">
<svg version="1.1" id="Calque_1" xmlns="http://www.w3.org/2000/svg" xmlns:xlink="http://www.w3.org/1999/xlink" x="0px" y="0px"
	 width="50px" height="100px" viewBox="0 0 50 100" enable-background="new 0 0 50 100" xml:space="preserve">
<g>
	<polygon points="40.241,38.298 38.812,38.298 35.326,38.298 31.839,38.298 28.353,38.298 27.062,38.298 23.41,38.298 
		22.298,38.298 8.118,38.298 8.118,50.752 8.118,50.752 8.118,62.27 8.118,62.27 8.118,86.246 11.605,86.246 11.605,82.758 
		15.09,82.758 15.09,79.27 18.578,79.27 18.578,75.785 22.064,75.785 22.064,72.297 25.553,72.297 29.039,72.297 29.039,75.285 
		32.524,75.285 32.524,78.773 36.012,78.773 36.012,82.26 39.5,82.26 39.5,85.746 42.986,85.746 42.986,62.27 42.986,62.27 
		42.986,50.752 42.986,50.752 42.986,38.298 42.147,38.298 	"/>
</g>
<circle fill="#999999" stroke="#FFFFFF" stroke-width="3.0964" stroke-miterlimit="10" cx="25.552" cy="26.786" r="22.833"/>
<polygon fill-rule="evenodd" clip-rule="evenodd" fill="#FFFFFF" points="25.553,11.078 29.079,21.932 40.492,21.932 31.259,28.641 
	34.786,39.495 25.553,32.787 16.319,39.495 19.846,28.641 10.612,21.932 22.025,21.932 "/>
</svg>
